<svg width="1025" height="1025" viewBox="0 0 1025 1025" fill="none" xmlns="http://www.w3.org/2000/svg">
<g clip-path="url(#clip0_12_2)">
<path d="M281.604 293.814H312.365C396.219 293.814 446.236 322.184 462.414 378.922C467.883 397.607 470.617 419.026 470.617 443.18V759H281.604V293.814ZM29.3574 443.18C29.3574 392.822 40.8646 355.908 63.8789 332.438C89.1719 306.689 130.415 293.814 187.609 293.814H218.371V759H29.3574V443.18ZM781.652 293.814H992.541V527.945L781.652 293.814ZM558.459 431.217H556.408C556.408 384.277 569.169 349.641 594.689 327.311C620.21 304.98 659.517 293.814 712.609 293.814L992.541 633.561C992.541 678.678 980.35 710.921 955.969 730.289C932.271 749.202 893.534 758.658 839.758 758.658L558.459 431.217ZM557.434 523.502L760.461 759H557.434V523.502Z" fill="white"/>
</g>
<defs>
<clipPath id="clip0_12_2">
<rect width="1025" height="1025" fill="white"/>
</clipPath>
</defs>
</svg>
